<mxfile host="app.diagrams.net" modified="2024-05-20T22:26:04.505Z" agent="Mozilla/5.0 (Windows NT 10.0; Win64; x64) AppleWebKit/537.36 (KHTML, like Gecko) Chrome/124.0.0.0 Safari/537.36" etag="hlxQ-z3MZJJYn4Vgc87l" version="24.4.4" type="device">
  <diagram name="Page-1" id="rV0CCG-J_6iLQ6VFgbC1">
    <mxGraphModel dx="1400" dy="759" grid="1" gridSize="10" guides="1" tooltips="1" connect="1" arrows="1" fold="1" page="1" pageScale="1" pageWidth="850" pageHeight="1100" math="0" shadow="0">
      <root>
        <mxCell id="0" />
        <mxCell id="1" parent="0" />
        <mxCell id="zoQhvg8xOiGkc53dGe1H-1" value="0" style="ellipse;whiteSpace=wrap;html=1;" vertex="1" parent="1">
          <mxGeometry width="40" height="40" as="geometry" />
        </mxCell>
        <mxCell id="zoQhvg8xOiGkc53dGe1H-2" value="1" style="ellipse;whiteSpace=wrap;html=1;" vertex="1" parent="1">
          <mxGeometry x="80" width="40" height="40" as="geometry" />
        </mxCell>
        <mxCell id="zoQhvg8xOiGkc53dGe1H-4" value="Z1" style="html=1;verticalAlign=bottom;endArrow=block;curved=0;rounded=0;exitX=1;exitY=0.5;exitDx=0;exitDy=0;entryX=0;entryY=0.5;entryDx=0;entryDy=0;" edge="1" parent="1" source="zoQhvg8xOiGkc53dGe1H-1" target="zoQhvg8xOiGkc53dGe1H-2">
          <mxGeometry width="80" relative="1" as="geometry">
            <mxPoint x="60" y="180" as="sourcePoint" />
            <mxPoint x="140" y="180" as="targetPoint" />
          </mxGeometry>
        </mxCell>
        <mxCell id="zoQhvg8xOiGkc53dGe1H-5" value="2" style="ellipse;whiteSpace=wrap;html=1;" vertex="1" parent="1">
          <mxGeometry x="200" y="20" width="40" height="40" as="geometry" />
        </mxCell>
        <mxCell id="zoQhvg8xOiGkc53dGe1H-6" value="3" style="ellipse;whiteSpace=wrap;html=1;" vertex="1" parent="1">
          <mxGeometry x="280" y="20" width="40" height="40" as="geometry" />
        </mxCell>
        <mxCell id="zoQhvg8xOiGkc53dGe1H-7" value="Z2" style="html=1;verticalAlign=bottom;endArrow=block;curved=0;rounded=0;exitX=1;exitY=0.5;exitDx=0;exitDy=0;entryX=0;entryY=0.5;entryDx=0;entryDy=0;" edge="1" parent="1" source="zoQhvg8xOiGkc53dGe1H-5" target="zoQhvg8xOiGkc53dGe1H-6">
          <mxGeometry width="80" relative="1" as="geometry">
            <mxPoint x="260" y="200" as="sourcePoint" />
            <mxPoint x="340" y="200" as="targetPoint" />
          </mxGeometry>
        </mxCell>
        <mxCell id="zoQhvg8xOiGkc53dGe1H-8" value="4" style="ellipse;whiteSpace=wrap;html=1;" vertex="1" parent="1">
          <mxGeometry x="400" y="40" width="40" height="40" as="geometry" />
        </mxCell>
        <mxCell id="zoQhvg8xOiGkc53dGe1H-9" value="5" style="ellipse;whiteSpace=wrap;html=1;" vertex="1" parent="1">
          <mxGeometry x="480" y="40" width="40" height="40" as="geometry" />
        </mxCell>
        <mxCell id="zoQhvg8xOiGkc53dGe1H-10" value="Z3" style="html=1;verticalAlign=bottom;endArrow=block;curved=0;rounded=0;exitX=1;exitY=0.5;exitDx=0;exitDy=0;entryX=0;entryY=0.5;entryDx=0;entryDy=0;" edge="1" parent="1" source="zoQhvg8xOiGkc53dGe1H-8" target="zoQhvg8xOiGkc53dGe1H-9">
          <mxGeometry width="80" relative="1" as="geometry">
            <mxPoint x="460" y="220" as="sourcePoint" />
            <mxPoint x="540" y="220" as="targetPoint" />
          </mxGeometry>
        </mxCell>
        <mxCell id="zoQhvg8xOiGkc53dGe1H-11" value="6" style="ellipse;whiteSpace=wrap;html=1;" vertex="1" parent="1">
          <mxGeometry y="160" width="40" height="40" as="geometry" />
        </mxCell>
        <mxCell id="zoQhvg8xOiGkc53dGe1H-12" value="7" style="ellipse;whiteSpace=wrap;html=1;" vertex="1" parent="1">
          <mxGeometry x="80" y="160" width="40" height="40" as="geometry" />
        </mxCell>
        <mxCell id="zoQhvg8xOiGkc53dGe1H-13" value="Z4" style="html=1;verticalAlign=bottom;endArrow=block;curved=0;rounded=0;exitX=1;exitY=0.5;exitDx=0;exitDy=0;entryX=0;entryY=0.5;entryDx=0;entryDy=0;" edge="1" parent="1" source="zoQhvg8xOiGkc53dGe1H-11" target="zoQhvg8xOiGkc53dGe1H-12">
          <mxGeometry width="80" relative="1" as="geometry">
            <mxPoint x="60" y="340" as="sourcePoint" />
            <mxPoint x="140" y="340" as="targetPoint" />
          </mxGeometry>
        </mxCell>
        <mxCell id="zoQhvg8xOiGkc53dGe1H-14" value="8" style="ellipse;whiteSpace=wrap;html=1;" vertex="1" parent="1">
          <mxGeometry x="200" y="180" width="40" height="40" as="geometry" />
        </mxCell>
        <mxCell id="zoQhvg8xOiGkc53dGe1H-15" value="9" style="ellipse;whiteSpace=wrap;html=1;" vertex="1" parent="1">
          <mxGeometry x="280" y="180" width="40" height="40" as="geometry" />
        </mxCell>
        <mxCell id="zoQhvg8xOiGkc53dGe1H-16" value="Z5" style="html=1;verticalAlign=bottom;endArrow=block;curved=0;rounded=0;exitX=1;exitY=0.5;exitDx=0;exitDy=0;entryX=0;entryY=0.5;entryDx=0;entryDy=0;" edge="1" parent="1" source="zoQhvg8xOiGkc53dGe1H-14" target="zoQhvg8xOiGkc53dGe1H-15">
          <mxGeometry width="80" relative="1" as="geometry">
            <mxPoint x="260" y="360" as="sourcePoint" />
            <mxPoint x="340" y="360" as="targetPoint" />
            <mxPoint as="offset" />
          </mxGeometry>
        </mxCell>
        <mxCell id="zoQhvg8xOiGkc53dGe1H-17" value="10" style="ellipse;whiteSpace=wrap;html=1;" vertex="1" parent="1">
          <mxGeometry y="380" width="40" height="40" as="geometry" />
        </mxCell>
        <mxCell id="zoQhvg8xOiGkc53dGe1H-18" value="11" style="ellipse;whiteSpace=wrap;html=1;" vertex="1" parent="1">
          <mxGeometry x="80" y="380" width="40" height="40" as="geometry" />
        </mxCell>
        <mxCell id="zoQhvg8xOiGkc53dGe1H-19" value="Z6" style="html=1;verticalAlign=bottom;endArrow=block;curved=0;rounded=0;exitX=1;exitY=0.5;exitDx=0;exitDy=0;entryX=0;entryY=0.5;entryDx=0;entryDy=0;" edge="1" parent="1" source="zoQhvg8xOiGkc53dGe1H-17" target="zoQhvg8xOiGkc53dGe1H-18">
          <mxGeometry width="80" relative="1" as="geometry">
            <mxPoint x="60" y="560" as="sourcePoint" />
            <mxPoint x="140" y="560" as="targetPoint" />
          </mxGeometry>
        </mxCell>
        <mxCell id="zoQhvg8xOiGkc53dGe1H-20" value="12" style="ellipse;whiteSpace=wrap;html=1;" vertex="1" parent="1">
          <mxGeometry x="200" y="400" width="40" height="40" as="geometry" />
        </mxCell>
        <mxCell id="zoQhvg8xOiGkc53dGe1H-21" value="13" style="ellipse;whiteSpace=wrap;html=1;" vertex="1" parent="1">
          <mxGeometry x="280" y="400" width="40" height="40" as="geometry" />
        </mxCell>
        <mxCell id="zoQhvg8xOiGkc53dGe1H-22" value="Z7" style="html=1;verticalAlign=bottom;endArrow=block;curved=0;rounded=0;exitX=1;exitY=0.5;exitDx=0;exitDy=0;entryX=0;entryY=0.5;entryDx=0;entryDy=0;" edge="1" parent="1" source="zoQhvg8xOiGkc53dGe1H-20" target="zoQhvg8xOiGkc53dGe1H-21">
          <mxGeometry width="80" relative="1" as="geometry">
            <mxPoint x="260" y="580" as="sourcePoint" />
            <mxPoint x="340" y="580" as="targetPoint" />
          </mxGeometry>
        </mxCell>
        <mxCell id="zoQhvg8xOiGkc53dGe1H-23" value="14" style="ellipse;whiteSpace=wrap;html=1;" vertex="1" parent="1">
          <mxGeometry x="400" y="420" width="40" height="40" as="geometry" />
        </mxCell>
        <mxCell id="zoQhvg8xOiGkc53dGe1H-24" value="15" style="ellipse;whiteSpace=wrap;html=1;" vertex="1" parent="1">
          <mxGeometry x="480" y="420" width="40" height="40" as="geometry" />
        </mxCell>
        <mxCell id="zoQhvg8xOiGkc53dGe1H-25" value="Z8" style="html=1;verticalAlign=bottom;endArrow=block;curved=0;rounded=0;exitX=1;exitY=0.5;exitDx=0;exitDy=0;entryX=0;entryY=0.5;entryDx=0;entryDy=0;" edge="1" parent="1" source="zoQhvg8xOiGkc53dGe1H-23" target="zoQhvg8xOiGkc53dGe1H-24">
          <mxGeometry width="80" relative="1" as="geometry">
            <mxPoint x="460" y="600" as="sourcePoint" />
            <mxPoint x="540" y="600" as="targetPoint" />
          </mxGeometry>
        </mxCell>
        <mxCell id="zoQhvg8xOiGkc53dGe1H-26" value="16" style="ellipse;whiteSpace=wrap;html=1;" vertex="1" parent="1">
          <mxGeometry x="600" y="440" width="40" height="40" as="geometry" />
        </mxCell>
        <mxCell id="zoQhvg8xOiGkc53dGe1H-27" value="17" style="ellipse;whiteSpace=wrap;html=1;" vertex="1" parent="1">
          <mxGeometry x="680" y="440" width="40" height="40" as="geometry" />
        </mxCell>
        <mxCell id="zoQhvg8xOiGkc53dGe1H-28" value="Z9" style="html=1;verticalAlign=bottom;endArrow=block;curved=0;rounded=0;exitX=1;exitY=0.5;exitDx=0;exitDy=0;entryX=0;entryY=0.5;entryDx=0;entryDy=0;" edge="1" parent="1" source="zoQhvg8xOiGkc53dGe1H-26" target="zoQhvg8xOiGkc53dGe1H-27">
          <mxGeometry width="80" relative="1" as="geometry">
            <mxPoint x="660" y="620" as="sourcePoint" />
            <mxPoint x="740" y="620" as="targetPoint" />
          </mxGeometry>
        </mxCell>
        <mxCell id="zoQhvg8xOiGkc53dGe1H-29" value="18" style="ellipse;whiteSpace=wrap;html=1;" vertex="1" parent="1">
          <mxGeometry x="800" y="460" width="40" height="40" as="geometry" />
        </mxCell>
        <mxCell id="zoQhvg8xOiGkc53dGe1H-30" value="19" style="ellipse;whiteSpace=wrap;html=1;" vertex="1" parent="1">
          <mxGeometry x="880" y="460" width="40" height="40" as="geometry" />
        </mxCell>
        <mxCell id="zoQhvg8xOiGkc53dGe1H-31" value="Z10" style="html=1;verticalAlign=bottom;endArrow=block;curved=0;rounded=0;exitX=1;exitY=0.5;exitDx=0;exitDy=0;entryX=0;entryY=0.5;entryDx=0;entryDy=0;" edge="1" parent="1" source="zoQhvg8xOiGkc53dGe1H-29" target="zoQhvg8xOiGkc53dGe1H-30">
          <mxGeometry width="80" relative="1" as="geometry">
            <mxPoint x="860" y="640" as="sourcePoint" />
            <mxPoint x="940" y="640" as="targetPoint" />
          </mxGeometry>
        </mxCell>
        <mxCell id="zoQhvg8xOiGkc53dGe1H-32" value="20" style="ellipse;whiteSpace=wrap;html=1;" vertex="1" parent="1">
          <mxGeometry x="600" y="560" width="40" height="40" as="geometry" />
        </mxCell>
        <mxCell id="zoQhvg8xOiGkc53dGe1H-33" value="21" style="ellipse;whiteSpace=wrap;html=1;" vertex="1" parent="1">
          <mxGeometry x="680" y="560" width="40" height="40" as="geometry" />
        </mxCell>
        <mxCell id="zoQhvg8xOiGkc53dGe1H-34" value="Z11" style="html=1;verticalAlign=bottom;endArrow=block;curved=0;rounded=0;exitX=1;exitY=0.5;exitDx=0;exitDy=0;entryX=0;entryY=0.5;entryDx=0;entryDy=0;" edge="1" parent="1" source="zoQhvg8xOiGkc53dGe1H-32" target="zoQhvg8xOiGkc53dGe1H-33">
          <mxGeometry width="80" relative="1" as="geometry">
            <mxPoint x="660" y="740" as="sourcePoint" />
            <mxPoint x="740" y="740" as="targetPoint" />
          </mxGeometry>
        </mxCell>
        <mxCell id="zoQhvg8xOiGkc53dGe1H-35" value="22" style="ellipse;whiteSpace=wrap;html=1;" vertex="1" parent="1">
          <mxGeometry x="600" y="640" width="40" height="40" as="geometry" />
        </mxCell>
        <mxCell id="zoQhvg8xOiGkc53dGe1H-36" value="23" style="ellipse;whiteSpace=wrap;html=1;" vertex="1" parent="1">
          <mxGeometry x="680" y="640" width="40" height="40" as="geometry" />
        </mxCell>
        <mxCell id="zoQhvg8xOiGkc53dGe1H-37" value="Z12" style="html=1;verticalAlign=bottom;endArrow=block;curved=0;rounded=0;exitX=1;exitY=0.5;exitDx=0;exitDy=0;entryX=0;entryY=0.5;entryDx=0;entryDy=0;" edge="1" parent="1" source="zoQhvg8xOiGkc53dGe1H-35" target="zoQhvg8xOiGkc53dGe1H-36">
          <mxGeometry width="80" relative="1" as="geometry">
            <mxPoint x="660" y="820" as="sourcePoint" />
            <mxPoint x="740" y="820" as="targetPoint" />
          </mxGeometry>
        </mxCell>
        <mxCell id="zoQhvg8xOiGkc53dGe1H-38" value="24" style="ellipse;whiteSpace=wrap;html=1;" vertex="1" parent="1">
          <mxGeometry x="800" y="660" width="40" height="40" as="geometry" />
        </mxCell>
        <mxCell id="zoQhvg8xOiGkc53dGe1H-39" value="25" style="ellipse;whiteSpace=wrap;html=1;" vertex="1" parent="1">
          <mxGeometry x="880" y="660" width="40" height="40" as="geometry" />
        </mxCell>
        <mxCell id="zoQhvg8xOiGkc53dGe1H-40" value="Z13" style="html=1;verticalAlign=bottom;endArrow=block;curved=0;rounded=0;exitX=1;exitY=0.5;exitDx=0;exitDy=0;entryX=0;entryY=0.5;entryDx=0;entryDy=0;" edge="1" parent="1" source="zoQhvg8xOiGkc53dGe1H-38" target="zoQhvg8xOiGkc53dGe1H-39">
          <mxGeometry width="80" relative="1" as="geometry">
            <mxPoint x="860" y="840" as="sourcePoint" />
            <mxPoint x="940" y="840" as="targetPoint" />
          </mxGeometry>
        </mxCell>
        <mxCell id="zoQhvg8xOiGkc53dGe1H-41" value="" style="endArrow=classic;html=1;rounded=0;dashed=1;exitX=1;exitY=0.5;exitDx=0;exitDy=0;entryX=0;entryY=0.5;entryDx=0;entryDy=0;" edge="1" parent="1" source="zoQhvg8xOiGkc53dGe1H-2" target="zoQhvg8xOiGkc53dGe1H-5">
          <mxGeometry width="50" height="50" relative="1" as="geometry">
            <mxPoint x="50" y="230" as="sourcePoint" />
            <mxPoint x="100" y="180" as="targetPoint" />
          </mxGeometry>
        </mxCell>
        <mxCell id="zoQhvg8xOiGkc53dGe1H-45" value="" style="endArrow=classic;html=1;rounded=0;dashed=1;exitX=1;exitY=0.5;exitDx=0;exitDy=0;entryX=0;entryY=0.5;entryDx=0;entryDy=0;" edge="1" parent="1" source="zoQhvg8xOiGkc53dGe1H-6" target="zoQhvg8xOiGkc53dGe1H-8">
          <mxGeometry width="50" height="50" relative="1" as="geometry">
            <mxPoint x="130" y="30" as="sourcePoint" />
            <mxPoint x="210" y="30" as="targetPoint" />
          </mxGeometry>
        </mxCell>
        <mxCell id="zoQhvg8xOiGkc53dGe1H-50" value="" style="endArrow=classic;html=1;rounded=0;dashed=1;exitX=0;exitY=1;exitDx=0;exitDy=0;entryX=0.5;entryY=0;entryDx=0;entryDy=0;" edge="1" parent="1" source="zoQhvg8xOiGkc53dGe1H-6" target="zoQhvg8xOiGkc53dGe1H-11">
          <mxGeometry width="50" height="50" relative="1" as="geometry">
            <mxPoint x="180" y="120" as="sourcePoint" />
            <mxPoint x="260" y="120" as="targetPoint" />
          </mxGeometry>
        </mxCell>
        <mxCell id="zoQhvg8xOiGkc53dGe1H-51" value="" style="endArrow=classic;html=1;rounded=0;dashed=1;exitX=0;exitY=1;exitDx=0;exitDy=0;entryX=1;entryY=0;entryDx=0;entryDy=0;" edge="1" parent="1" source="zoQhvg8xOiGkc53dGe1H-9" target="zoQhvg8xOiGkc53dGe1H-11">
          <mxGeometry width="50" height="50" relative="1" as="geometry">
            <mxPoint x="190" y="130" as="sourcePoint" />
            <mxPoint x="270" y="130" as="targetPoint" />
          </mxGeometry>
        </mxCell>
        <mxCell id="zoQhvg8xOiGkc53dGe1H-52" value="" style="endArrow=classic;html=1;rounded=0;dashed=1;exitX=0.5;exitY=1;exitDx=0;exitDy=0;entryX=0.5;entryY=0;entryDx=0;entryDy=0;" edge="1" parent="1" source="zoQhvg8xOiGkc53dGe1H-6" target="zoQhvg8xOiGkc53dGe1H-14">
          <mxGeometry width="50" height="50" relative="1" as="geometry">
            <mxPoint x="200" y="140" as="sourcePoint" />
            <mxPoint x="280" y="140" as="targetPoint" />
          </mxGeometry>
        </mxCell>
        <mxCell id="zoQhvg8xOiGkc53dGe1H-53" value="" style="endArrow=classic;html=1;rounded=0;dashed=1;exitX=0.5;exitY=1;exitDx=0;exitDy=0;entryX=1;entryY=0;entryDx=0;entryDy=0;" edge="1" parent="1" source="zoQhvg8xOiGkc53dGe1H-9" target="zoQhvg8xOiGkc53dGe1H-14">
          <mxGeometry width="50" height="50" relative="1" as="geometry">
            <mxPoint x="210" y="150" as="sourcePoint" />
            <mxPoint x="290" y="150" as="targetPoint" />
          </mxGeometry>
        </mxCell>
        <mxCell id="zoQhvg8xOiGkc53dGe1H-54" value="" style="endArrow=classic;html=1;rounded=0;dashed=1;exitX=0;exitY=1;exitDx=0;exitDy=0;entryX=0.5;entryY=0;entryDx=0;entryDy=0;" edge="1" parent="1" source="zoQhvg8xOiGkc53dGe1H-12" target="zoQhvg8xOiGkc53dGe1H-17">
          <mxGeometry width="50" height="50" relative="1" as="geometry">
            <mxPoint x="220" y="160" as="sourcePoint" />
            <mxPoint x="300" y="160" as="targetPoint" />
          </mxGeometry>
        </mxCell>
        <mxCell id="zoQhvg8xOiGkc53dGe1H-55" value="" style="endArrow=classic;html=1;rounded=0;dashed=1;exitX=0;exitY=1;exitDx=0;exitDy=0;entryX=1;entryY=0;entryDx=0;entryDy=0;" edge="1" parent="1" source="zoQhvg8xOiGkc53dGe1H-15" target="zoQhvg8xOiGkc53dGe1H-17">
          <mxGeometry width="50" height="50" relative="1" as="geometry">
            <mxPoint x="230" y="170" as="sourcePoint" />
            <mxPoint x="310" y="170" as="targetPoint" />
          </mxGeometry>
        </mxCell>
        <mxCell id="zoQhvg8xOiGkc53dGe1H-56" value="" style="endArrow=classic;html=1;rounded=0;dashed=1;exitX=0.5;exitY=1;exitDx=0;exitDy=0;entryX=0;entryY=0;entryDx=0;entryDy=0;" edge="1" parent="1" source="zoQhvg8xOiGkc53dGe1H-12" target="zoQhvg8xOiGkc53dGe1H-20">
          <mxGeometry width="50" height="50" relative="1" as="geometry">
            <mxPoint x="240" y="180" as="sourcePoint" />
            <mxPoint x="320" y="180" as="targetPoint" />
          </mxGeometry>
        </mxCell>
        <mxCell id="zoQhvg8xOiGkc53dGe1H-57" value="" style="endArrow=classic;html=1;rounded=0;dashed=1;exitX=0.5;exitY=1;exitDx=0;exitDy=0;entryX=1;entryY=0;entryDx=0;entryDy=0;" edge="1" parent="1" source="zoQhvg8xOiGkc53dGe1H-15" target="zoQhvg8xOiGkc53dGe1H-20">
          <mxGeometry width="50" height="50" relative="1" as="geometry">
            <mxPoint x="250" y="190" as="sourcePoint" />
            <mxPoint x="330" y="190" as="targetPoint" />
          </mxGeometry>
        </mxCell>
        <mxCell id="zoQhvg8xOiGkc53dGe1H-58" value="" style="endArrow=classic;html=1;rounded=0;dashed=1;exitX=1;exitY=1;exitDx=0;exitDy=0;entryX=0;entryY=0;entryDx=0;entryDy=0;" edge="1" parent="1" source="zoQhvg8xOiGkc53dGe1H-12" target="zoQhvg8xOiGkc53dGe1H-23">
          <mxGeometry width="50" height="50" relative="1" as="geometry">
            <mxPoint x="260" y="200" as="sourcePoint" />
            <mxPoint x="340" y="200" as="targetPoint" />
          </mxGeometry>
        </mxCell>
        <mxCell id="zoQhvg8xOiGkc53dGe1H-59" value="" style="endArrow=classic;html=1;rounded=0;dashed=1;exitX=1;exitY=1;exitDx=0;exitDy=0;entryX=0.5;entryY=0;entryDx=0;entryDy=0;" edge="1" parent="1" source="zoQhvg8xOiGkc53dGe1H-15" target="zoQhvg8xOiGkc53dGe1H-23">
          <mxGeometry width="50" height="50" relative="1" as="geometry">
            <mxPoint x="270" y="210" as="sourcePoint" />
            <mxPoint x="350" y="210" as="targetPoint" />
          </mxGeometry>
        </mxCell>
        <mxCell id="zoQhvg8xOiGkc53dGe1H-60" value="" style="endArrow=classic;html=1;rounded=0;dashed=1;exitX=1;exitY=0.5;exitDx=0;exitDy=0;entryX=0;entryY=0;entryDx=0;entryDy=0;" edge="1" parent="1" source="zoQhvg8xOiGkc53dGe1H-12" target="zoQhvg8xOiGkc53dGe1H-29">
          <mxGeometry width="50" height="50" relative="1" as="geometry">
            <mxPoint x="280" y="220" as="sourcePoint" />
            <mxPoint x="710" y="320" as="targetPoint" />
          </mxGeometry>
        </mxCell>
        <mxCell id="zoQhvg8xOiGkc53dGe1H-61" value="" style="endArrow=classic;html=1;rounded=0;dashed=1;exitX=1;exitY=0.5;exitDx=0;exitDy=0;entryX=0.5;entryY=0;entryDx=0;entryDy=0;" edge="1" parent="1" source="zoQhvg8xOiGkc53dGe1H-15" target="zoQhvg8xOiGkc53dGe1H-29">
          <mxGeometry width="50" height="50" relative="1" as="geometry">
            <mxPoint x="290" y="230" as="sourcePoint" />
            <mxPoint x="370" y="230" as="targetPoint" />
          </mxGeometry>
        </mxCell>
        <mxCell id="zoQhvg8xOiGkc53dGe1H-62" value="" style="endArrow=classic;html=1;rounded=0;dashed=1;exitX=1;exitY=0.5;exitDx=0;exitDy=0;entryX=0;entryY=0.5;entryDx=0;entryDy=0;" edge="1" parent="1" source="zoQhvg8xOiGkc53dGe1H-24" target="zoQhvg8xOiGkc53dGe1H-26">
          <mxGeometry width="50" height="50" relative="1" as="geometry">
            <mxPoint x="300" y="240" as="sourcePoint" />
            <mxPoint x="380" y="240" as="targetPoint" />
          </mxGeometry>
        </mxCell>
        <mxCell id="zoQhvg8xOiGkc53dGe1H-63" value="" style="endArrow=classic;html=1;rounded=0;dashed=1;exitX=1;exitY=1;exitDx=0;exitDy=0;entryX=0;entryY=1;entryDx=0;entryDy=0;" edge="1" parent="1" source="zoQhvg8xOiGkc53dGe1H-18" target="zoQhvg8xOiGkc53dGe1H-32">
          <mxGeometry width="50" height="50" relative="1" as="geometry">
            <mxPoint x="310" y="250" as="sourcePoint" />
            <mxPoint x="390" y="250" as="targetPoint" />
          </mxGeometry>
        </mxCell>
        <mxCell id="zoQhvg8xOiGkc53dGe1H-64" value="" style="endArrow=classic;html=1;rounded=0;dashed=1;exitX=1;exitY=1;exitDx=0;exitDy=0;entryX=0;entryY=0.5;entryDx=0;entryDy=0;" edge="1" parent="1" source="zoQhvg8xOiGkc53dGe1H-21" target="zoQhvg8xOiGkc53dGe1H-32">
          <mxGeometry width="50" height="50" relative="1" as="geometry">
            <mxPoint x="320" y="260" as="sourcePoint" />
            <mxPoint x="400" y="260" as="targetPoint" />
          </mxGeometry>
        </mxCell>
        <mxCell id="zoQhvg8xOiGkc53dGe1H-65" value="" style="endArrow=classic;html=1;rounded=0;dashed=1;exitX=0;exitY=1;exitDx=0;exitDy=0;entryX=0;entryY=0;entryDx=0;entryDy=0;" edge="1" parent="1" source="zoQhvg8xOiGkc53dGe1H-24" target="zoQhvg8xOiGkc53dGe1H-32">
          <mxGeometry width="50" height="50" relative="1" as="geometry">
            <mxPoint x="330" y="270" as="sourcePoint" />
            <mxPoint x="410" y="270" as="targetPoint" />
          </mxGeometry>
        </mxCell>
        <mxCell id="zoQhvg8xOiGkc53dGe1H-67" value="" style="endArrow=classic;html=1;rounded=0;dashed=1;exitX=0;exitY=1;exitDx=0;exitDy=0;entryX=0.5;entryY=0;entryDx=0;entryDy=0;" edge="1" parent="1" source="zoQhvg8xOiGkc53dGe1H-27" target="zoQhvg8xOiGkc53dGe1H-32">
          <mxGeometry width="50" height="50" relative="1" as="geometry">
            <mxPoint x="340" y="280" as="sourcePoint" />
            <mxPoint x="420" y="280" as="targetPoint" />
          </mxGeometry>
        </mxCell>
        <mxCell id="zoQhvg8xOiGkc53dGe1H-68" value="" style="endArrow=classic;html=1;rounded=0;dashed=1;exitX=0;exitY=1;exitDx=0;exitDy=0;entryX=1;entryY=0;entryDx=0;entryDy=0;" edge="1" parent="1" source="zoQhvg8xOiGkc53dGe1H-30" target="zoQhvg8xOiGkc53dGe1H-32">
          <mxGeometry width="50" height="50" relative="1" as="geometry">
            <mxPoint x="350" y="290" as="sourcePoint" />
            <mxPoint x="430" y="290" as="targetPoint" />
          </mxGeometry>
        </mxCell>
        <mxCell id="zoQhvg8xOiGkc53dGe1H-69" value="" style="endArrow=classic;html=1;rounded=0;dashed=1;exitX=0;exitY=1;exitDx=0;exitDy=0;entryX=0.5;entryY=0;entryDx=0;entryDy=0;" edge="1" parent="1" source="zoQhvg8xOiGkc53dGe1H-33" target="zoQhvg8xOiGkc53dGe1H-35">
          <mxGeometry width="50" height="50" relative="1" as="geometry">
            <mxPoint x="400" y="300" as="sourcePoint" />
            <mxPoint x="480" y="300" as="targetPoint" />
          </mxGeometry>
        </mxCell>
        <mxCell id="zoQhvg8xOiGkc53dGe1H-70" value="" style="endArrow=classic;html=1;rounded=0;dashed=1;exitX=1;exitY=0.5;exitDx=0;exitDy=0;entryX=0;entryY=0.5;entryDx=0;entryDy=0;" edge="1" parent="1" source="zoQhvg8xOiGkc53dGe1H-36" target="zoQhvg8xOiGkc53dGe1H-38">
          <mxGeometry width="50" height="50" relative="1" as="geometry">
            <mxPoint x="410" y="310" as="sourcePoint" />
            <mxPoint x="490" y="310" as="targetPoint" />
          </mxGeometry>
        </mxCell>
      </root>
    </mxGraphModel>
  </diagram>
</mxfile>
